<?xml version="1.0" ?><!DOCTYPE svg  PUBLIC '-//W3C//DTD SVG 1.1//EN'  'http://www.w3.org/Graphics/SVG/1.1/DTD/svg11.dtd'><svg enable-background="new 0 0 512 512" id="Layer_1" version="1.1" viewBox="0 0 512 512" xml:space="preserve" xmlns="http://www.w3.org/2000/svg" xmlns:xlink="http://www.w3.org/1999/xlink"><g><g><path d="M494.1,493.5l-238-229.9c-2.1-2-3.2-4.7-3.2-7.6s1.2-5.6,3.2-7.6l238-229.9c3-2.9,7.6-3.8,11.4-2.1    c3.9,1.7,6.4,5.5,6.4,9.7v459.9c0,4.2-2.5,8.1-6.4,9.7c-1.3,0.6-2.7,0.8-4.1,0.8C498.8,496.5,496.1,495.5,494.1,493.5z M278.7,256    l212.2,205.1V50.9L278.7,256z" fill="#6A6E7C"/></g><g><path d="M241.2,493.5L3.2,263.6c-2.1-2-3.2-4.7-3.2-7.6c0-2.9,1.2-5.6,3.2-7.6l238-229.9c3-2.9,7.6-3.8,11.4-2.1    c3.9,1.7,6.4,5.5,6.4,9.7v459.9c0,4.2-2.5,8.1-6.4,9.7c-1.3,0.6-2.7,0.8-4.1,0.8C245.8,496.5,243.2,495.5,241.2,493.5z M25.7,256    L238,461.1V50.9L25.7,256z" fill="#6A6E7C"/></g></g></svg>